<svg width="125" height="125" viewBox="0 0 125 125" fill="none" xmlns="http://www.w3.org/2000/svg">
<g clip-path="url(#clip0)">
<path d="M124.759 68.274C123.637 56.9852 118.593 46.3427 110.558 38.3067C103.69 31.4397 95.2849 27.0267 86.4406 25.0646V18.8613C90.0529 17.9626 92.738 14.6928 92.738 10.8063C92.738 6.22906 89.0143 2.50537 84.4371 2.50537H66.8587C62.2815 2.50537 58.5578 6.22906 58.5578 10.8063C58.5578 14.6926 61.2429 17.9624 64.855 18.8613V25.0819C56.0377 27.0524 47.6602 31.4592 40.8124 38.3069C39.3138 39.8055 37.932 41.3776 36.6671 43.0114C36.6058 43.0067 36.5445 43.0021 36.482 43.0021H19.084C17.7359 43.0021 16.6426 44.0951 16.6426 45.4435C16.6426 46.7919 17.7359 47.885 19.084 47.885H33.345C31.5549 50.8819 30.1116 54.0291 29.0129 57.2689H2.44144C1.09328 57.2689 0 58.3619 0 59.7104C0 61.0588 1.09328 62.1518 2.44144 62.1518H27.6332C26.9296 65.2405 26.5258 68.3838 26.4216 71.536H15.6252C14.2771 71.536 13.1838 72.629 13.1838 73.9774C13.1838 75.3258 14.2771 76.4189 15.6252 76.4189H26.4994C26.7055 79.5791 27.2136 82.7227 28.0239 85.803H12.2072C10.8591 85.803 9.76578 86.8961 9.76578 88.2445C9.76578 89.5929 10.8591 90.6859 12.2072 90.6859H29.582C31.9771 97.0217 35.72 102.96 40.8124 108.052C48.856 116.096 59.5095 121.141 70.8099 122.257C72.4228 122.416 74.0368 122.495 75.6486 122.495C85.1756 122.495 94.5816 119.738 102.563 114.541C103.693 113.805 104.012 112.292 103.276 111.162C102.54 110.032 101.028 109.713 99.898 110.449C82.4278 121.825 59.0307 119.365 44.2651 104.6C26.9401 87.2747 26.9401 59.0851 44.2651 41.7599C61.5898 24.4352 89.7795 24.4352 107.105 41.7599C121.851 56.5062 124.324 79.8833 112.985 97.345C112.251 98.4758 112.572 99.9881 113.703 100.722C114.834 101.457 116.346 101.135 117.08 100.004C123.138 90.6742 125.865 79.4057 124.759 68.274ZM63.4407 10.8065C63.4407 8.92173 64.9739 7.3885 66.8587 7.3885H84.4371C86.3219 7.3885 87.8551 8.92173 87.8551 10.8065C87.8551 12.6913 86.3219 14.2245 84.4371 14.2245H83.9991H67.2965H66.8587C64.9739 14.2245 63.4407 12.6911 63.4407 10.8065ZM69.7379 24.2425V19.1074H81.5577V24.2337C77.6328 23.7669 73.662 23.7699 69.7379 24.2425Z" fill="#5D7C64"/>
<path d="M108.832 103.883C108.188 103.883 107.56 104.145 107.106 104.599C106.65 105.053 106.391 105.683 106.391 106.325C106.391 106.967 106.65 107.597 107.106 108.051C107.56 108.507 108.188 108.766 108.832 108.766C109.474 108.766 110.102 108.507 110.558 108.051C111.012 107.597 111.274 106.967 111.274 106.325C111.274 105.683 111.013 105.053 110.558 104.599C110.102 104.145 109.474 103.883 108.832 103.883Z" fill="#5D7C64"/>
<path d="M75.685 35.3055C54.8014 35.3055 37.8112 52.2955 37.8112 73.1794C37.8112 94.0632 54.8014 111.053 75.685 111.053C96.5687 111.053 113.559 94.0632 113.559 73.1794C113.559 52.2955 96.5687 35.3055 75.685 35.3055ZM75.685 106.17C57.4936 106.17 42.694 91.3706 42.694 73.1794C42.694 54.9882 57.4936 40.1884 75.685 40.1884C93.8765 40.1884 108.676 54.9882 108.676 73.1794C108.676 91.3706 93.8765 106.17 75.685 106.17Z" fill="#5D7C64"/>
<path d="M91.1286 54.2831L79.0361 66.3753C78.0249 65.8753 76.8874 65.5928 75.685 65.5928C74.4824 65.5928 73.3451 65.8753 72.3339 66.3753L66.9219 60.9634C65.9683 60.01 64.4229 60.01 63.469 60.9634C62.5156 61.9168 62.5156 63.4627 63.469 64.4161L68.881 69.828C68.3807 70.8393 68.0985 71.9767 68.0985 73.1791C68.0985 77.3623 71.5016 80.7657 75.685 80.7657C79.8684 80.7657 83.2716 77.3623 83.2716 73.1791C83.2716 71.9767 82.9891 70.8393 82.4891 69.828L94.2266 58.0905L94.5813 57.7358C95.5347 56.7824 95.5347 55.2365 94.5813 54.2831C93.6279 53.3297 92.0825 53.3297 91.1286 54.2831ZM75.685 75.883C74.1943 75.883 72.9814 74.6701 72.9814 73.1794C72.9814 71.6886 74.1943 70.4757 75.685 70.4757C77.1758 70.4757 78.3887 71.6886 78.3887 73.1794C78.3887 74.6701 77.1758 75.883 75.685 75.883Z" fill="#5D7C64"/>
<path d="M101.789 70.7677H99.5267C98.1785 70.7677 97.0853 71.8607 97.0853 73.2091C97.0853 74.5575 98.1785 75.6505 99.5267 75.6505H101.789C103.137 75.6505 104.23 74.5575 104.23 73.2091C104.23 71.8607 103.137 70.7677 101.789 70.7677Z" fill="#5D7C64"/>
<path d="M51.843 70.7081H49.5813C48.2332 70.7081 47.1399 71.8011 47.1399 73.1495C47.1399 74.4979 48.2332 75.5909 49.5813 75.5909H51.843C53.1912 75.5909 54.2844 74.4979 54.2844 73.1495C54.2844 71.8011 53.1912 70.7081 51.843 70.7081Z" fill="#5D7C64"/>
<path d="M75.7148 51.7788C77.0629 51.7788 78.1562 50.6858 78.1562 49.3374V47.0757C78.1562 45.7273 77.0629 44.6343 75.7148 44.6343C74.3666 44.6343 73.2734 45.7273 73.2734 47.0757V49.3374C73.2734 50.6858 74.3666 51.7788 75.7148 51.7788Z" fill="#5D7C64"/>
<path d="M75.6552 94.5798C74.3071 94.5798 73.2138 95.6729 73.2138 97.0212V99.283C73.2138 100.631 74.3071 101.724 75.6552 101.724C77.0034 101.724 78.0966 100.631 78.0966 99.283V97.0212C78.0966 95.6729 77.0034 94.5798 75.6552 94.5798Z" fill="#5D7C64"/>
<path d="M2.44141 85.8021C1.79932 85.8021 1.16943 86.0634 0.715332 86.5175C0.26123 86.9716 0 87.6014 0 88.2435C0 88.8881 0.260986 89.5155 0.715332 89.9696C1.16968 90.4237 1.79932 90.6849 2.44141 90.6849C3.0835 90.6849 3.71338 90.4237 4.16724 89.9696C4.62134 89.5155 4.88281 88.8856 4.88281 88.2435C4.88281 87.6014 4.62158 86.9716 4.16724 86.5175C3.71338 86.0634 3.0835 85.8021 2.44141 85.8021Z" fill="#5D7C64"/>
</g>
<defs>
<clipPath id="clip0">
<rect width="125" height="125" fill="white"/>
</clipPath>
</defs>
</svg>
