<svg width="125" height="125" viewBox="0 0 125 125" fill="none" xmlns="http://www.w3.org/2000/svg">
<path d="M89.3555 96.6797C88.0078 96.6797 86.9141 97.7734 86.9141 99.1211C86.9141 100.469 88.0078 101.562 89.3555 101.562C90.7031 101.562 91.7969 100.469 91.7969 99.1211C91.7969 97.7734 90.7031 96.6797 89.3555 96.6797Z" fill="#5D7C64"/>
<path d="M95.3667 88.7849L83.7627 84.9177L79.5969 76.5859C83.3499 72.7661 85.9556 67.7119 86.8342 62.4402L87.3538 59.3262H91.7969C95.8354 59.3262 99.1211 56.0405 99.1211 52.002V36.6211C99.1211 16.4282 82.6929 0 62.5 0C42.2554 0 25.8789 16.3811 25.8789 36.6211V52.002C25.8789 55.1846 27.9202 57.8984 30.7617 58.9062V61.7676C30.7617 65.8062 34.0474 69.0918 38.0859 69.0918H40.23C41.2883 71.3909 42.6582 73.5203 44.3252 75.4331C44.6709 75.8306 45.0315 76.2158 45.4009 76.5906L41.2373 84.9177L29.6331 88.7852C16.1406 93.2842 6.34766 107.488 6.34766 122.559C6.34766 123.907 7.44067 125 8.78906 125H116.211C117.559 125 118.652 123.907 118.652 122.559C118.652 107.488 108.86 93.2842 95.3667 88.7849ZM94.2383 52.002C94.2383 53.3481 93.1431 54.4434 91.7969 54.4434H88.0708C88.6914 49.6362 89.105 44.5208 89.2712 39.4824C89.2761 39.3403 89.28 39.2021 89.2844 39.0625H94.2383V52.002ZM33.2031 54.4434C31.8569 54.4434 30.7617 53.3481 30.7617 52.002V39.0625H35.7173C35.7253 39.3171 35.7339 39.573 35.7434 39.8306C35.7437 39.8394 35.7441 39.8479 35.7444 39.8567C35.7444 39.8574 35.7444 39.8582 35.7444 39.8589C35.9153 44.7593 36.3235 49.7419 36.9299 54.4431H33.2031V54.4434ZM38.0859 64.209C36.7397 64.209 35.6445 63.1138 35.6445 61.7676V59.3262H37.646L38.1655 62.4412C38.2647 63.0332 38.3865 63.623 38.5273 64.209H38.0859ZM35.6487 34.1797H30.8545C32.0911 17.8171 45.7463 4.88281 62.5 4.88281C79.1792 4.88281 92.8945 17.8154 94.1453 34.1797H89.3516C89.1758 20.6965 78.196 9.76562 64.6853 9.76562H60.3152C46.8047 9.76562 35.8242 20.6965 35.6487 34.1797ZM60.3149 14.6484H64.6851C75.6248 14.6484 84.479 23.5964 84.4727 34.5239C84.4727 35.2922 84.4666 35.9612 84.4536 36.5698C84.4536 36.5776 84.4534 36.5857 84.4534 36.5938L81.3997 36.1575C73.1038 34.9729 65.2708 31.0564 59.3435 25.1292C58.8855 24.6714 58.2646 24.4141 57.6172 24.4141C51.0605 24.4141 44.7842 27.4014 40.6353 32.4482C41.6577 22.5071 50.0618 14.6484 60.3149 14.6484ZM43.5889 64.209C42.3667 60.1433 40.9683 48.1804 40.6592 40.5144L43.9451 36.1331C46.9629 32.1106 51.658 29.6113 56.6523 29.3245C63.2239 35.5784 71.7253 39.7083 80.7092 40.991L84.3035 41.5046C84.0632 46.6035 83.5723 51.7202 82.8689 56.426C82.8687 56.4275 82.8684 56.4292 82.8682 56.4309C82.6445 57.9438 82.4683 58.9175 82.0181 61.637C80.7251 69.3921 74.9385 76.405 67.2996 78.3149C64.1558 79.0999 60.8438 79.0996 57.7017 78.3149C52.9319 77.1226 48.5583 73.8223 45.7358 69.0918H50.7129C51.7207 71.9333 54.4343 73.9746 57.6172 73.9746H62.5C66.5466 73.9746 69.8242 70.6973 69.8242 66.6504C69.8242 62.6118 66.5386 59.3262 62.5 59.3262H57.6172C54.3635 59.3262 51.6899 61.4277 50.7087 64.209H43.5889ZM57.4119 83.2559C59.0864 83.6086 60.7937 83.7891 62.5 83.7891C63.8357 83.7891 65.1716 83.6772 66.4924 83.4604L62.1785 88.0227L57.4119 83.2559ZM58.822 91.572L51.0784 99.761C48.9465 95.6804 47.1147 91.4336 45.6123 87.0859L48.5203 81.27L58.822 91.572ZM76.0659 80.4429L79.3872 87.0857C77.8823 91.4407 76.05 95.689 73.9204 99.7646L65.6323 91.4766L76.0659 80.4429ZM55.1758 66.6504C55.1758 65.3025 56.269 64.209 57.6172 64.209H62.5C63.8462 64.209 64.9414 65.3042 64.9414 66.6504C64.9414 67.9985 63.8479 69.0918 62.5 69.0918H57.6172C56.271 69.0918 55.1758 67.9966 55.1758 66.6504ZM11.3281 120.117C12.2957 108.023 20.3447 97.0295 31.1772 93.4172L41.4541 89.9924C43.3369 95.1987 45.6694 100.259 48.4031 105.066C48.4077 105.074 48.4121 105.082 48.4167 105.09C48.4167 105.091 48.417 105.091 48.417 105.091C50.4143 108.604 52.6624 112.037 55.0996 115.296L58.103 120.117H11.3281ZM62.5 117.941L59.189 112.625C59.1519 112.566 59.1123 112.508 59.0703 112.452C57.0933 109.814 55.249 107.056 53.5693 104.233L62.2761 95.0259L71.4504 104.2C69.7595 107.044 67.9089 109.813 65.9302 112.451C65.8105 112.611 65.9802 112.359 62.5 117.941ZM66.897 120.117L69.9001 115.296C72.3481 112.024 74.6123 108.564 76.6296 105.01C76.6418 104.988 76.6533 104.966 76.6655 104.945C76.667 104.942 76.6685 104.94 76.6699 104.937C79.3689 100.176 81.677 95.1599 83.5459 89.9924L93.8225 93.4172C104.655 97.0295 112.704 108.023 113.672 120.117H66.897Z" fill="#5D7C64"/>
<path d="M106.334 110.237C104.703 106.971 102.313 104.07 99.4231 101.847C98.3543 101.024 96.8215 101.224 95.9995 102.293C95.1773 103.362 95.3772 104.895 96.4458 105.717C98.7539 107.492 100.663 109.81 101.966 112.419C102.57 113.627 104.037 114.114 105.241 113.512C106.447 112.91 106.937 111.443 106.334 110.237Z" fill="#5D7C64"/>
</svg>
