<svg width="125" height="125" viewBox="0 0 125 125" fill="none" xmlns="http://www.w3.org/2000/svg">
<g clip-path="url(#clip0)">
<path d="M15.625 105.469H19.5312V109.375H15.625V105.469Z" fill="#5D7C64"/>
<path d="M23.4375 105.469H27.3438V109.375H23.4375V105.469Z" fill="#5D7C64"/>
<path d="M31.25 105.469H35.1562V109.375H31.25V105.469Z" fill="#5D7C64"/>
<path d="M7.8125 105.469H11.7188V109.375H7.8125V105.469Z" fill="#5D7C64"/>
<path d="M15.625 89.8438H19.5312V93.75H15.625V89.8438Z" fill="#5D7C64"/>
<path d="M23.4375 89.8438H27.3438V93.75H23.4375V89.8438Z" fill="#5D7C64"/>
<path d="M31.25 89.8438H35.1562V93.75H31.25V89.8438Z" fill="#5D7C64"/>
<path d="M7.8125 89.8438H11.7188V93.75H7.8125V89.8438Z" fill="#5D7C64"/>
<path d="M15.625 74.2188H19.5312V78.125H15.625V74.2188Z" fill="#5D7C64"/>
<path d="M7.8125 74.2188H11.7188V78.125H7.8125V74.2188Z" fill="#5D7C64"/>
<path d="M23.4375 74.2188H27.3438V78.125H23.4375V74.2188Z" fill="#5D7C64"/>
<path d="M15.625 58.5938H19.5312V62.5H15.625V58.5938Z" fill="#5D7C64"/>
<path d="M7.8125 58.5938H11.7188V62.5H7.8125V58.5938Z" fill="#5D7C64"/>
<path d="M15.625 27.3438H19.5312V31.25H15.625V27.3438Z" fill="#5D7C64"/>
<path d="M7.8125 27.3438H11.7188V31.25H7.8125V27.3438Z" fill="#5D7C64"/>
<path d="M23.4375 27.3438H27.3438V31.25H23.4375V27.3438Z" fill="#5D7C64"/>
<path d="M31.25 27.3438H35.1562V31.25H31.25V27.3438Z" fill="#5D7C64"/>
<path d="M15.625 42.9688H19.5312V46.875H15.625V42.9688Z" fill="#5D7C64"/>
<path d="M7.8125 42.9688H11.7188V46.875H7.8125V42.9688Z" fill="#5D7C64"/>
<path d="M23.4375 42.9688H27.3438V46.875H23.4375V42.9688Z" fill="#5D7C64"/>
<path d="M66.4062 31.25H70.3125V35.1562H66.4062V31.25Z" fill="#5D7C64"/>
<path d="M66.4062 89.8438H70.3125V93.75H66.4062V89.8438Z" fill="#5D7C64"/>
<path d="M37.1094 60.5469H41.0156V64.4531H37.1094V60.5469Z" fill="#5D7C64"/>
<path d="M44.8828 41.7843L47.6446 39.0225L50.4065 41.7843L47.6446 44.5471L44.8828 41.7843Z" fill="#5D7C64"/>
<path d="M86.3152 83.2157L89.0779 80.4539L91.8398 83.2157L89.0779 85.9785L86.3152 83.2157Z" fill="#5D7C64"/>
<path d="M44.8818 83.2157L47.6446 80.4539L50.4065 83.2157L47.6446 85.9775L44.8818 83.2157Z" fill="#5D7C64"/>
<path d="M105.469 31.8356L86.0081 58.5938H95.7031V86.2656C86.0968 97.4178 70.672 101.603 56.7465 96.8351C42.8209 92.0677 33.1974 79.3076 32.4411 64.6076C31.6849 49.9086 39.9485 36.2282 53.3104 30.057C66.6733 23.8857 82.4461 26.4654 93.1463 36.5725L88.2635 43.2854L91.424 45.5818L105.469 26.2699L119.514 45.5818L122.674 43.2854L105.469 19.6285L95.459 33.3986C88.5859 27.0329 79.6719 23.3202 70.3125 22.9235V0H0V117.188H70.3125V102.606C79.7787 102.179 88.7814 98.3896 95.7031 91.918V97.6562H115.234V58.5938H124.929L105.469 31.8356ZM3.90625 11.7188H7.8125V7.8125H3.90625V3.90625H66.4062V7.8125H62.5V11.7188H66.4062V19.5312H3.90625V11.7188ZM3.90625 23.4375H61.7971C57.7221 24.1222 53.7786 25.4402 50.1118 27.3438H39.0625V31.25H44.0407C42.4995 32.445 41.0471 33.7505 39.6957 35.1562H3.90625V23.4375ZM3.90625 39.0625H36.4141C33.7667 42.6054 31.7316 46.567 30.3907 50.7812H3.90625V39.0625ZM3.90625 54.6875H29.3713C28.8267 57.3349 28.553 60.0309 28.5549 62.7346C28.5549 63.9744 28.6293 65.1951 28.7504 66.4062H3.90625V54.6875ZM3.90625 70.3125H29.2969C30.0875 74.419 31.5247 78.3739 33.5531 82.0312H3.90625V70.3125ZM3.90625 85.9375H36.0546C39.5088 90.766 43.9911 94.7676 49.1781 97.6562H3.90625V85.9375ZM66.4062 113.281H3.90625V101.562H58.5938V101.367C61.1525 102.02 63.7693 102.417 66.4062 102.551V113.281ZM111.328 54.6875V93.75H99.6094V54.6875H93.6794L105.469 38.4769L117.258 54.6875H111.328Z" fill="#5D7C64"/>
<path d="M66.4062 39.0625V63.3087L77.7206 74.6231L80.4825 71.8613L70.3125 61.6913V39.0625H66.4062Z" fill="#5D7C64"/>
<path d="M3.90625 121.094H15.625V125H3.90625V121.094Z" fill="#5D7C64"/>
<path d="M54.6875 121.094H66.4062V125H54.6875V121.094Z" fill="#5D7C64"/>
<path d="M39.0625 105.469H62.5V109.375H39.0625V105.469Z" fill="#5D7C64"/>
<path d="M11.7188 7.8125H58.5938V11.7188H11.7188V7.8125Z" fill="#5D7C64"/>
</g>
<defs>
<clipPath id="clip0">
<rect width="125" height="125" fill="white"/>
</clipPath>
</defs>
</svg>
